<svg width="25" height="25" viewBox="0 0 25 25" fill="none" xmlns="http://www.w3.org/2000/svg">
<path d="M19.1661 7.29266L19.166 7.29259L12.9162 3.12591L19.1661 7.29266ZM19.1661 7.29266C19.3745 7.43149 19.5 7.6659 19.5 7.9168V22H15.5V16.875C15.5 16.2535 14.9965 15.75 14.375 15.75H10.625C10.0035 15.75 9.5 16.2535 9.5 16.875V22H5.5V7.91652C5.5 7.91648 5.5 7.91645 5.5 7.91641C5.50004 7.79299 5.53054 7.67149 5.58879 7.56269C5.64705 7.45384 5.73128 7.36107 5.834 7.29259L12.0838 3.12591L19.1661 7.29266ZM12.625 9.375V9.875H13.125H13.875V10.125H12.375V8H12.625V9.375ZM0.5 21.875V11.25C0.5 10.8359 0.835908 10.5 1.25 10.5H3.25V22H0.625C0.555829 22 0.5 21.9442 0.5 21.875ZM12.5 3C12.648 3 12.7928 3.04377 12.916 3.12579H12.084C12.2072 3.04377 12.352 3 12.5 3ZM8.875 9.375C8.875 11.3769 10.4981 13 12.5 13C14.5019 13 16.125 11.3769 16.125 9.375C16.125 7.37308 14.5019 5.75 12.5 5.75C10.4981 5.75 8.875 7.37308 8.875 9.375ZM21.75 22V10.5H23.75C24.1641 10.5 24.5 10.8359 24.5 11.25V21.875C24.5 21.9442 24.4442 22 24.375 22H21.75Z" stroke="black"/>
</svg>
