<svg width="25" height="26" viewBox="0 0 25 26" fill="none" xmlns="http://www.w3.org/2000/svg">
<g clip-path="url(#clip0_400_1976)">
<path d="M14.2285 13.3716L14.4818 13.6249L14.8031 13.4666C15.9769 12.8881 17.4285 13.0804 18.3984 14.0503L24.1162 19.7681C24.6281 20.28 24.63 21.1163 24.1155 21.6349C24.1153 21.6351 24.1151 21.6353 24.115 21.6355L21.5429 24.2075L21.5417 24.2087C21.0299 24.724 20.1951 24.7258 19.6768 24.2075L13.959 18.4897C12.99 17.5207 12.8007 16.0688 13.3759 14.8931L13.5328 14.5723L13.2803 14.3198L8.07523 9.11471L7.92879 8.96826H7.72168H4.93945L0.662142 3.26518L3.17387 0.75345L8.87695 5.03076V7.81299V8.0201L9.0234 8.16654L14.2285 13.3716ZM24.3063 5.54402L24.3068 5.54608C24.8424 7.69738 24.2702 10.0642 22.5879 11.7465C22.0863 12.2481 21.5163 12.6397 20.9091 12.9398L20.209 12.2397C19.1385 11.1692 17.7124 10.5796 16.1982 10.5796C15.8514 10.5796 15.4994 10.6129 15.1546 10.6765L11.4825 7.0044C11.4998 5.36572 12.1104 3.74563 13.3487 2.50736C15.0255 0.83056 17.3917 0.257739 19.5434 0.788198C19.5792 0.797526 19.6012 0.820788 19.6105 0.853599C19.6153 0.870489 19.6151 0.88614 19.6121 0.898517C19.6095 0.909286 19.604 0.921793 19.5898 0.935997L15.957 4.56881L15.7751 4.7507L15.8173 5.00444L16.3691 8.31987L16.4277 8.67235L16.7802 8.73101L20.0957 9.28277L20.3494 9.325L20.5313 9.1431L24.1641 5.51029C24.1788 5.49554 24.1923 5.4894 24.2041 5.4865C24.2174 5.48322 24.2334 5.48313 24.2498 5.48761C24.2661 5.49209 24.2789 5.50003 24.2874 5.50843C24.2947 5.51565 24.3019 5.52591 24.3063 5.54402ZM1.26859 20.1148L1.26871 20.1147L8.35656 13.0222L10.5814 15.247C10.4153 16.1858 10.5072 17.1324 10.7929 18.0141L4.98043 23.8266C3.95499 24.8521 2.29403 24.8521 1.26859 23.8266C0.243151 22.8012 0.243151 21.1402 1.26859 20.1148Z" fill="white" stroke="black"/>
</g>
<defs>
<clipPath id="clip0_400_1976">
<rect width="25" height="25" fill="white" transform="translate(0.00195312 0.0932617)"/>
</clipPath>
</defs>
</svg>
